<svg width="24" height="24" viewBox="0 0 24 24" fill="none" xmlns="http://www.w3.org/2000/svg">
<path opacity="0.4" d="M7.37 22H16.62C19.31 22 21.49 19.82 21.49 17.13V8.37C21.49 5.68 19.31 3.5 16.62 3.5H7.37C4.68 3.5 2.5 5.68 2.5 8.37V17.12C2.5 19.82 4.68 22 7.37 22Z" fill="#100531"/>
<path d="M8.29004 6.29C7.87004 6.29 7.54004 5.95 7.54004 5.54V2.75C7.54004 2.34 7.87004 2 8.29004 2C8.71004 2 9.04004 2.34 9.04004 2.75V5.53C9.04004 5.95 8.71004 6.29 8.29004 6.29Z" fill="#100531"/>
<path d="M15.71 6.29C15.29 6.29 14.96 5.95 14.96 5.54V2.75C14.96 2.33 15.3 2 15.71 2C16.13 2 16.46 2.34 16.46 2.75V5.53C16.46 5.95 16.13 6.29 15.71 6.29Z" fill="#100531"/>
<path d="M14.78 13.71H7.35999C6.93999 13.71 6.60999 13.37 6.60999 12.96C6.60999 12.55 6.94999 12.21 7.35999 12.21H14.78C15.2 12.21 15.53 12.55 15.53 12.96C15.53 13.37 15.2 13.71 14.78 13.71Z" fill="#100531"/>
<path d="M12 17.42H7.35999C6.93999 17.42 6.60999 17.08 6.60999 16.67C6.60999 16.25 6.94999 15.92 7.35999 15.92H12C12.42 15.92 12.75 16.26 12.75 16.67C12.75 17.08 12.42 17.42 12 17.42Z" fill="#100531"/>
</svg>
