<svg width="32" height="32" viewBox="0 0 32 32" fill="none" xmlns="http://www.w3.org/2000/svg">
<path opacity="0.4" d="M9.82665 29.3334H22.16C25.7466 29.3334 28.6533 26.4267 28.6533 22.84V11.16C28.6533 7.57335 25.7466 4.66669 22.16 4.66669H9.82665C6.23998 4.66669 3.33331 7.57335 3.33331 11.16V22.8267C3.33331 26.4267 6.23998 29.3334 9.82665 29.3334Z" fill="white"/>
<path d="M11.0533 8.38669C10.4933 8.38669 10.0533 7.93335 10.0533 7.38669V3.66669C10.0533 3.12002 10.4933 2.66669 11.0533 2.66669C11.6133 2.66669 12.0533 3.12002 12.0533 3.66669V7.37335C12.0533 7.93335 11.6133 8.38669 11.0533 8.38669Z" fill="white"/>
<path d="M20.9467 8.38669C20.3867 8.38669 19.9467 7.93335 19.9467 7.38669V3.66669C19.9467 3.10669 20.4 2.66669 20.9467 2.66669C21.5067 2.66669 21.9467 3.12002 21.9467 3.66669V7.37335C21.9467 7.93335 21.5067 8.38669 20.9467 8.38669Z" fill="white"/>
<path d="M19.7067 18.28H9.81335C9.25335 18.28 8.81335 17.8267 8.81335 17.28C8.81335 16.7334 9.26669 16.28 9.81335 16.28H19.7067C20.2667 16.28 20.7067 16.7334 20.7067 17.28C20.7067 17.8267 20.2667 18.28 19.7067 18.28Z" fill="white"/>
<path d="M16 23.2267H9.81335C9.25335 23.2267 8.81335 22.7734 8.81335 22.2267C8.81335 21.6667 9.26669 21.2267 9.81335 21.2267H16C16.56 21.2267 17 21.68 17 22.2267C17 22.7734 16.56 23.2267 16 23.2267Z" fill="white"/>
</svg>
