<svg width="146" height="50" viewBox="0 0 146 50" fill="none" xmlns="http://www.w3.org/2000/svg">
<path d="M27.5308 40.1395C27.5757 35.5502 26.4122 31.8182 24.9322 31.8037C23.4521 31.7893 22.2159 35.4979 22.1711 40.0871C22.1262 44.6764 23.2897 48.4085 24.7697 48.4229C26.2498 48.4374 27.486 44.7288 27.5308 40.1395Z" fill="#541FEB"/>
<path d="M18.947 39.0972C21.4661 35.2608 22.5052 31.4922 21.268 30.6798C20.0307 29.8674 16.9856 32.3188 14.4666 36.1552C11.9475 39.9916 10.9084 43.7601 12.1456 44.5726C13.3829 45.385 16.4279 42.9336 18.947 39.0972Z" fill="#541FEB"/>
<path d="M12.2792 33.593C16.4726 31.7278 19.3843 29.1194 18.7827 27.767C18.1812 26.4146 14.2942 26.8304 10.1008 28.6957C5.90744 30.5609 2.99571 33.1693 3.59726 34.5217C4.1988 35.8741 8.08584 35.4583 12.2792 33.593Z" fill="#541FEB"/>
<path d="M18.2794 23.9745C18.5046 22.5116 15.0099 20.7597 10.4739 20.0615C5.93779 19.3633 2.07805 19.9833 1.85289 21.4462C1.62773 22.9091 5.12241 24.6609 9.65849 25.3591C14.1945 26.0573 18.0543 25.4373 18.2794 23.9745Z" fill="#541FEB"/>
<path d="M19.908 20.4895C20.8882 19.3805 18.895 16.0176 15.4561 12.9783C12.0172 9.93901 8.43479 8.37425 7.45461 9.48331C6.47443 10.5924 8.46763 13.9553 11.9066 16.9946C15.3455 20.0339 18.9279 21.5986 19.908 20.4895Z" fill="#541FEB"/>
<path d="M23.1514 18.4528C24.5756 18.0498 24.7171 14.1431 23.4675 9.72704C22.2179 5.31095 20.0503 2.05771 18.6261 2.46072C17.2019 2.86373 17.0604 6.77037 18.31 11.1865C19.5596 15.6025 21.7272 18.8558 23.1514 18.4528Z" fill="#541FEB"/>
<path d="M31.9584 11.3239C33.2949 6.9333 33.2305 3.02461 31.8145 2.5936C30.3985 2.16258 28.1672 5.37244 26.8307 9.76303C25.4943 14.1536 25.5587 18.0623 26.9747 18.4933C28.3907 18.9243 30.622 15.7145 31.9584 11.3239Z" fill="#541FEB"/>
<path d="M38.2514 17.2565C41.7491 14.285 43.8077 10.9617 42.8493 9.83372C41.891 8.70572 38.2787 10.2002 34.7811 13.1716C31.2834 16.1431 29.2249 19.4664 30.1832 20.5944C31.1415 21.7224 34.7538 20.228 38.2514 17.2565Z" fill="#541FEB"/>
<path d="M40.3322 25.6519C44.8812 25.0433 48.4097 23.3607 48.2134 21.8936C48.0172 20.4266 44.1704 19.7307 39.6214 20.3392C35.0725 20.9478 31.5439 22.6304 31.7402 24.0975C31.9365 25.5645 35.7832 26.2605 40.3322 25.6519Z" fill="#541FEB"/>
<path d="M46.2004 34.941C46.8285 33.6008 43.9688 30.9355 39.813 28.9879C35.6573 27.0403 31.7792 26.548 31.1511 27.8882C30.523 29.2285 33.3827 31.8938 37.5385 33.8414C41.6942 35.7889 45.5723 36.2813 46.2004 34.941Z" fill="#541FEB"/>
<path d="M37.4589 44.8299C38.7119 44.0421 37.7473 40.2537 35.3044 36.3684C32.8615 32.4831 29.8653 29.9722 28.6123 30.76C27.3593 31.5478 28.3239 35.3362 30.7668 39.2215C33.2097 43.1068 36.2059 45.6178 37.4589 44.8299Z" fill="#541FEB"/>
<path d="M65.9676 16.08V25.896C65.9676 26.808 66.1756 27.512 66.5916 28.008C67.0236 28.504 67.6716 28.752 68.5356 28.752C69.3996 28.752 70.0476 28.504 70.4796 28.008C70.9276 27.496 71.1516 26.792 71.1516 25.896V16.08H75.8556V25.896C75.8556 27.448 75.5276 28.776 74.8716 29.88C74.2156 30.968 73.3196 31.792 72.1836 32.352C71.0636 32.896 69.8156 33.168 68.4396 33.168C67.0636 33.168 65.8316 32.896 64.7436 32.352C63.6716 31.792 62.8236 30.968 62.1996 29.88C61.5916 28.792 61.2876 27.464 61.2876 25.896V16.08H65.9676ZM83.1496 21.408C83.5176 20.784 84.0376 20.288 84.7096 19.92C85.3816 19.552 86.1736 19.368 87.0856 19.368C88.1576 19.368 89.1256 19.648 89.9896 20.208C90.8696 20.768 91.5576 21.568 92.0536 22.608C92.5656 23.648 92.8216 24.864 92.8216 26.256C92.8216 27.648 92.5656 28.872 92.0536 29.928C91.5576 30.968 90.8696 31.768 89.9896 32.328C89.1256 32.888 88.1576 33.168 87.0856 33.168C86.1736 33.168 85.3816 32.984 84.7096 32.616C84.0536 32.248 83.5336 31.752 83.1496 31.128V39.432H78.4456V19.536H83.1496V21.408ZM88.0456 26.256C88.0456 25.376 87.8056 24.696 87.3256 24.216C86.8616 23.72 86.2856 23.472 85.5976 23.472C84.9096 23.472 84.3256 23.72 83.8456 24.216C83.3816 24.712 83.1496 25.392 83.1496 26.256C83.1496 27.136 83.3816 27.824 83.8456 28.32C84.3256 28.816 84.9096 29.064 85.5976 29.064C86.2856 29.064 86.8616 28.816 87.3256 28.32C87.8056 27.808 88.0456 27.12 88.0456 26.256ZM101.142 33.168C99.1741 33.168 97.5581 32.704 96.2941 31.776C95.0301 30.832 94.3501 29.488 94.2541 27.744H99.2701C99.3181 28.336 99.4941 28.768 99.7981 29.04C100.102 29.312 100.494 29.448 100.974 29.448C101.406 29.448 101.758 29.344 102.03 29.136C102.318 28.912 102.462 28.608 102.462 28.224C102.462 27.728 102.23 27.344 101.766 27.072C101.302 26.8 100.55 26.496 99.5101 26.16C98.4061 25.792 97.5101 25.44 96.8221 25.104C96.1501 24.752 95.5581 24.248 95.0461 23.592C94.5501 22.92 94.3021 22.048 94.3021 20.976C94.3021 19.888 94.5741 18.96 95.1181 18.192C95.6621 17.408 96.4141 16.816 97.3741 16.416C98.3341 16.016 99.4221 15.816 100.638 15.816C102.606 15.816 104.174 16.28 105.342 17.208C106.526 18.12 107.158 19.408 107.238 21.072H102.126C102.11 20.56 101.95 20.176 101.646 19.92C101.358 19.664 100.982 19.536 100.518 19.536C100.166 19.536 99.8781 19.64 99.6541 19.848C99.4301 20.056 99.3181 20.352 99.3181 20.736C99.3181 21.056 99.4381 21.336 99.6781 21.576C99.9341 21.8 100.246 22 100.614 22.176C100.982 22.336 101.526 22.544 102.246 22.8C103.318 23.168 104.198 23.536 104.886 23.904C105.59 24.256 106.19 24.76 106.686 25.416C107.198 26.056 107.454 26.872 107.454 27.864C107.454 28.872 107.198 29.776 106.686 30.576C106.19 31.376 105.462 32.008 104.502 32.472C103.558 32.936 102.438 33.168 101.142 33.168ZM118.065 33L114.345 27.48V33H109.641V15.24H114.345V24.816L118.065 19.536H123.705L118.401 26.304L123.801 33H118.065ZM127.556 18.288C126.724 18.288 126.052 18.064 125.54 17.616C125.044 17.152 124.796 16.576 124.796 15.888C124.796 15.184 125.044 14.6 125.54 14.136C126.052 13.672 126.724 13.44 127.556 13.44C128.372 13.44 129.028 13.672 129.524 14.136C130.036 14.6 130.292 15.184 130.292 15.888C130.292 16.576 130.036 17.152 129.524 17.616C129.028 18.064 128.372 18.288 127.556 18.288ZM129.884 19.536V33H125.18V19.536H129.884ZM137.267 15.24V33H132.563V15.24H137.267ZM144.65 15.24V33H139.946V15.24H144.65Z" fill="#100531"/>
</svg>
